<svg width="36" height="31" viewBox="0 0 36 31" fill="none" xmlns="http://www.w3.org/2000/svg">
<rect width="36" height="31" fill="#2C2C44"/>
<path d="M18 5C17.172 5 16.5 5.672 16.5 6.5V7.19531C13.9132 7.86209 12 10.2048 12 13V19L10 21V22H16.2695C16.0934 22.3039 16.0005 22.6488 16 23C16 23.5304 16.2107 24.0391 16.5858 24.4142C16.9609 24.7893 17.4696 25 18 25C18.5304 25 19.0391 24.7893 19.4142 24.4142C19.7893 24.0391 20 23.5304 20 23C19.9989 22.6486 19.9053 22.3037 19.7285 22H26V21L24 19V13C24 10.2048 22.0868 7.86209 19.5 7.19531V6.5C19.5 5.672 18.828 5 18 5ZM18 9C20.206 9 22 10.794 22 13V19V19.8281L22.1719 20H13.8281L14 19.8281V19V13C14 10.794 15.794 9 18 9Z" fill="#11BCFF"/>
</svg>
